<?xml version="1.0" encoding="UTF-8"?>
<svg class="w-56 -mb-6 pl-4 " viewBox="0 0 557 571" fill="none"
	xmlns="http://www.w3.org/2000/svg">
	<path d="M381.306 298.546C386.405 300.397 388.337 294.755 388.337 294.755C388.337 294.755 421.778 203.787 424.504 199.176C428.356 192.712 437.604 181.199 454.866 188.419C462.058 191.411 475.085 199.346 467.831 224.218C466.254 229.592 413.925 370.769 410.687 378.575C410.687 378.575 384.989 440.233 365.241 467.748C359.772 475.374 353.489 483.66 345.208 491.118C336.959 498.562 327.014 505.518 315.497 510.445C304.036 515.505 291.139 518.398 278.083 519.089C265.013 519.747 251.898 518.193 239.345 515.301C236.231 514.519 233.083 513.751 230.045 512.78L221.359 510.231C215.291 508.403 209.436 506.248 203.718 503.957C192.249 499.388 181.334 493.916 171.194 487.878C161.074 481.793 151.785 474.999 143.603 467.771C135.422 460.543 128.516 452.73 123.015 444.904C117.428 437.153 113.43 429.271 110.698 422.061C107.734 414.95 106.566 408.284 105.658 402.956C104.914 397.558 104.794 393.342 104.9 390.477C104.973 387.627 105.031 386.115 105.031 386.115C104.727 381.194 104.441 376.5 104.161 372.274C103.37 360.357 102.603 346.942 101.861 333.126C101.548 327.269 101.432 324.617 101.432 324.617L101.441 324.731C98.8467 274.275 96.8773 221.987 96.8773 221.987C96.1081 212.958 104.564 206.091 113.827 208.158C140.567 214.103 155.997 232.874 158.565 258.83L161.755 317.449C161.561 324.227 171.58 327.694 174.727 321.688C184.623 302.811 202.163 254.941 202.163 254.941C210.637 235.028 256.139 117.248 259.401 109.863C265.976 95.0298 277.507 83.9106 291.298 87.134C305.391 90.4237 313.58 101.329 308.912 119.065C307.642 123.876 262.752 245.466 262.752 245.466C260.124 252.502 268.78 257.178 271.961 250.062C271.961 250.062 328.39 100.162 330.866 93.2294C336.45 77.4505 352.135 67.8042 366.056 72.8899C379.647 77.8432 385.801 92.8689 380.222 109.116C378.432 114.267 339.068 220.767 323.62 264.102C322.592 267.008 322.292 270.425 326.257 271.822C326.304 271.841 330.515 273.72 332.523 268.163C336.766 256.481 380.002 141.825 382.454 135.568C388.084 121.179 399.402 110.66 414.378 115.921C428.011 120.7 436.297 135.675 429.773 151.543L378.011 291.851C378.011 291.851 376.491 296.808 381.306 298.546Z" fill="#FAC036"/>
	<path d="M203.861 102.529C203.861 102.529 185.878 113.668 176.227 140.348C166.59 167.062 168.841 195.112 168.841 195.112" stroke="#444444" stroke-width="4" stroke-miterlimit="10" stroke-linecap="round"/>
	<path d="M147.509 100.403C147.509 100.403 134.86 115.407 130.981 140.754C127.103 166.101 134.002 190.557 134.002 190.557" stroke="#444444" stroke-width="4" stroke-miterlimit="10" stroke-linecap="round"/>
	<path d="M437.442 396.216C437.442 396.216 457.388 389.21 472.525 365.194C487.662 341.178 491.514 313.297 491.514 313.297" stroke="#444444" stroke-width="4" stroke-miterlimit="10" stroke-linecap="round"/>
	<path d="M465.194 422.831C465.194 422.831 483.524 415.89 499.292 395.637C515.06 375.384 520.933 350.672 520.933 350.672" stroke="#444444" stroke-width="4" stroke-miterlimit="10" stroke-linecap="round"/>
	<path d="M328.372 442.71C332.44 436.987 329.94 434.821 329.94 434.821C329.94 434.821 325.656 432.922 319.94 436.517C314.224 440.112 267.44 474.321 199.885 436.517C199.885 436.517 190.954 431.374 188.938 436.987C188.938 436.987 188.237 442.71 196.44 450.321C233.365 484.581 291.692 494.321 328.372 442.71Z" fill="#E48C15"/>
	<circle cx="155.477" cy="415.477" r="22.4767" fill="#FF5BAA" fill-opacity="0.47"/>
	<circle cx="361.477" cy="418.477" r="22.4767" fill="#FF5BAA" fill-opacity="0.47"/>
	<circle cx="176.948" cy="392.966" r="22.4767" fill="#142627"/>
	<circle r="11.4395" transform="matrix(0.434311 -0.900763 -0.900763 -0.434311 172.272 384.272)" fill="#FFF4F4"/>
	<path d="M364.253 392.966C364.253 405.38 354.19 415.443 341.777 415.443C329.363 415.443 319.3 405.38 319.3 392.966C319.3 380.553 329.363 370.49 341.777 370.49C354.19 370.49 364.253 380.553 364.253 392.966Z" fill="#142627"/>
	<circle r="11.4395" transform="matrix(0.434311 -0.900763 -0.900763 -0.434311 338.272 385.272)" fill="#FFF4F4"/>
</svg>
